<svg xmlns="http://www.w3.org/2000/svg" xmlns:xlink="http://www.w3.org/1999/xlink" fill="none" version="1.1" width="64" height="64" viewBox="0 0 64 64"><g><g><path d="M0,51.9529L0,12.0471C0,5.39365,5.39365,0,12.0471,0L51.9529,0C58.6063,0,64,5.39365,64,12.0471L64,51.9529C64,58.6063,58.6063,64,51.9529,64L12.0471,64C5.39365,64,0,58.6063,0,51.9529Z" fill="#007FFF" fill-opacity="1"/></g><g><path d="M50.4471,23.03895793395996L48.2711,19.302317933959962C47.1485,17.40121053395996,44.6916,16.75402693395996,42.7671,17.85250593395996L21.7148,29.86204793395996L0.692706,17.82261293395996C0.472501,17.69206093395996,0.240613,17.581984933959962,0,17.49378793395996L0,17.49378793395996L0,31.55844793395996L7.52339e-16,31.55844793395996L15.7591,40.52644793395996L15.7591,64.00004793395996L27.9944,64.00004793395996L27.9944,40.45914793395996L48.9412,28.47954793395996C49.8706,27.95884793395996,50.5522,27.091697933959964,50.8349,26.07030793395996C51.1177,25.048917933959963,50.978,23.95777793395996,50.4471,23.03895793395996Z" fill="#FFFFFF" fill-opacity="1"/></g></g></svg>